<?xml version="1.0" encoding="UTF-8" standalone="no"?>
<!-- Generator: Adobe Illustrator 16.0.0, SVG Export Plug-In . SVG Version: 6.00 Build 0)  -->

<svg
   version="1.1"
   id="Layer_1"
   x="0px"
   y="0px"
   width="64px"
   height="64px"
   viewBox="0 0 64 64"
   enable-background="new 0 0 64 64"
   xml:space="preserve"
	xmlns:inkscape="http://www.inkscape.org/namespaces/inkscape"
   xmlns:sodipodi="http://sodipodi.sourceforge.net/DTD/sodipodi-0.dtd"
   xmlns="http://www.w3.org/2000/svg"
   xmlns:svg="http://www.w3.org/2000/svg"><defs
   id="defs79" />
   id="namedview77"
   pagecolor="#ffffff"
   bordercolor="#000000"
   borderopacity="0.25"
   inkscape:showpageshadow="2"
   inkscape:pageopacity="0.0"
   inkscape:pagecheckerboard="0"
   inkscape:deskcolor="#d1d1d1"
   showgrid="false"
   inkscape:zoom="12.9375"
   inkscape:cx="18.975845"
   inkscape:cy="32"
   inkscape:window-width="1910"
   inkscape:window-height="1037"
   inkscape:window-x="0"
   inkscape:window-y="0"
   inkscape:window-maximized="1"
   inkscape:current-layer="Layer_1" />
<g
   id="g74">
	<circle
   fill="none"
   stroke="#000000"
   stroke-width="2"
   stroke-miterlimit="10"
   cx="21"
   cy="21"
   r="20"
   id="circle68" />
	<line
   fill="none"
   stroke="#000000"
   stroke-width="2"
   stroke-miterlimit="10"
   x1="35"
   y1="35"
   x2="41"
   y2="41"
   id="line70" />
	
		<rect
   x="46.257"
   y="37.065"
   transform="matrix(-0.7071 0.7071 -0.7071 -0.7071 121.9178 50.5)"
   fill="none"
   stroke="#000000"
   stroke-width="2"
   stroke-miterlimit="10"
   width="8.485"
   height="26.87"
   id="rect72" />
</g>
<path
   style="fill:#4f772d;stroke:#808000;stroke-width:0.0772947;fill-opacity:1"
   d="M 46.819505,54.125987 36.67701,43.981444 l 1.487128,-1.488596 1.487127,-1.488595 -2.255191,-2.255192 -2.255191,-2.255191 -0.229405,0.187847 c -3.704927,3.033782 -6.79148,4.440058 -11.220657,5.112287 -0.420225,0.06378 -1.423058,0.09866 -2.782608,0.09679 -2.289535,-0.0032 -3.07527,-0.09018 -4.934591,-0.54654 -2.045338,-0.50202 -4.725931,-1.670291 -6.4090709,-2.79324 C 1.4409246,33.131128 -1.9433887,23.264914 1.197029,14.15736 2.2474358,11.111066 3.8107008,8.6315965 6.1803266,6.2534317 7.4304094,4.9988444 7.9536904,4.5593846 9.2771803,3.6526454 16.161741,-1.0640517 25.406542,-1.1568453 32.386473,3.4206888 c 2.472725,1.6216462 4.490963,3.6352165 6.178143,6.1638523 0.802231,1.2023319 1.82875,3.3424619 2.321684,4.8403489 0.803372,2.441212 1.086124,4.405247 1.022393,7.10168 -0.0668,2.826443 -0.509906,4.963063 -1.551756,7.482506 -0.865227,2.092324 -1.848781,3.671912 -3.67522,5.902402 l -0.187847,0.229405 2.255191,2.255191 2.255192,2.255191 1.507852,-1.506365 1.507852,-1.506365 10.163839,10.163618 10.163838,10.163619 -3.651772,3.652379 c -2.008476,2.008809 -3.670243,3.65238 -3.692818,3.65238 -0.02257,0 -4.605167,-4.565045 -10.183539,-10.144544 z m 12.543034,5.197464 2.318095,-2.319061 -8.830597,-8.830597 -8.830596,-8.830596 -2.33808,2.33808 -2.338079,2.338079 8.811324,8.811578 c 4.846228,4.846368 8.828989,8.811578 8.850581,8.811578 0.02159,0 1.0824,-1.043577 2.357352,-2.319061 z M 24.183021,39.777622 c 1.13997,-0.204531 1.637001,-0.328883 2.71553,-0.679401 7.120692,-2.314199 12.263697,-8.66262 13.030255,-16.084282 0.131876,-1.276797 0.05295,-3.988195 -0.15016,-5.158867 C 39.452397,15.974713 38.959336,14.42791 38.152498,12.753623 35.396023,7.0336009 30.13935,3.1635971 23.752431,2.1521823 22.529814,1.9585721 19.535411,1.9564583 18.280193,2.1483192 10.515169,3.3352088 4.3773488,8.899319 2.519752,16.435613 c -0.4164101,1.68938 -0.5097992,2.534048 -0.5073238,4.588542 0.00239,1.985389 0.090991,2.817081 0.4669641,4.383452 1.6588783,6.911187 7.0067658,12.332661 13.8552987,14.045946 0.7693,0.192454 1.331893,0.294255 2.757096,0.498896 0.127537,0.01831 1.118841,0.0235 2.202899,0.01152 1.602206,-0.0177 2.14266,-0.05257 2.888335,-0.186352 z"
   id="path1146" /></svg>
